<svg width="175" height="64" viewBox="0 0 175 64" fill="none" xmlns="http://www.w3.org/2000/svg">
<path d="M10.624 2.192V19.184H27.136V26H1.536V2.192H10.624ZM45.591 8.016L41.687 16.208H49.591L45.591 8.016ZM52.503 22.16H38.903L37.079 26H27.863L39.639 2.192H51.863L64.311 26H54.359L52.503 22.16ZM75.5245 2.192L89.3485 15.728V2.192H98.3725V26H89.2845L74.3725 11.568V26H65.3485V2.192H75.5245ZM117.474 26.448C115.042 26.448 112.93 26.256 111.138 25.872C109.346 25.488 107.842 25.008 106.594 24.368C105.346 23.728 104.322 22.992 103.554 22.16C102.786 21.328 102.178 20.496 101.73 19.6C101.282 18.704 100.994 17.84 100.866 16.944C100.706 16.048 100.642 15.248 100.642 14.48V13.552C100.642 12.816 100.706 12.016 100.834 11.12C100.962 10.224 101.25 9.36 101.698 8.464C102.114 7.6 102.722 6.768 103.49 5.936C104.258 5.136 105.25 4.432 106.498 3.792C107.746 3.184 109.282 2.704 111.074 2.32C112.866 1.936 114.978 1.744 117.474 1.744H118.722C121.122 1.744 123.202 1.936 124.962 2.256C126.722 2.576 128.226 3.024 129.442 3.568C130.658 4.112 131.65 4.72 132.418 5.424C133.186 6.128 133.762 6.832 134.21 7.536C134.626 8.24 134.914 8.944 135.074 9.616C135.202 10.288 135.298 10.864 135.298 11.376V11.792H125.858C125.794 11.664 125.698 11.376 125.538 10.96C125.346 10.576 124.994 10.16 124.45 9.744C123.906 9.328 123.138 8.944 122.114 8.624C121.09 8.304 119.746 8.144 118.018 8.144C116.354 8.144 115.01 8.336 113.986 8.656C112.962 8.976 112.13 9.424 111.554 9.936C110.978 10.48 110.562 11.088 110.37 11.728C110.146 12.4 110.05 13.072 110.05 13.712V14.096C110.05 14.736 110.146 15.408 110.402 16.112C110.626 16.816 111.042 17.456 111.65 18.032C112.226 18.608 113.058 19.088 114.082 19.472C115.106 19.856 116.45 20.016 118.05 20.016C119.202 20.016 120.226 19.952 121.058 19.76C121.89 19.6 122.594 19.376 123.17 19.12C123.746 18.864 124.194 18.608 124.546 18.288C124.866 17.968 125.154 17.68 125.346 17.392C125.538 17.104 125.666 16.848 125.73 16.592C125.794 16.368 125.858 16.208 125.89 16.112H135.298V16.624C135.298 17.136 135.202 17.744 135.074 18.448C134.914 19.152 134.626 19.856 134.178 20.56C133.73 21.296 133.154 22 132.386 22.704C131.618 23.408 130.594 24.048 129.378 24.592C128.162 25.168 126.658 25.616 124.93 25.936C123.17 26.288 121.09 26.448 118.722 26.448H117.474ZM163.81 2.192V8.016H146.434V10.992H163.458V16.784H146.434V20.048H164.066V26H137.474V2.192H163.81ZM1.536 34.192H14.016L21.312 47.568L28.736 34.192H40.704V58H31.712V43.152L23.36 58H18.72L10.4 43.152V58H1.536V34.192Z" fill="#1D1D1D"/>
<circle cx="51" cy="53" r="5" fill="#F44D00"/>
</svg>
