<svg width="1000" height="400" viewBox="0 0 1000 400" fill="none" xmlns="http://www.w3.org/2000/svg">
<rect width="1000" height="400" fill="#F3F2F9"/>
<path d="M78.9922 57.7734H84.5547V59H77.5469V47.625H78.9922V57.7734ZM94.3672 53.9688C94.362 54.375 94.3255 54.7865 94.2578 55.2031C94.1953 55.6146 94.0964 56.013 93.9609 56.3984C93.8255 56.7839 93.651 57.1432 93.4375 57.4766C93.2292 57.8099 92.9792 58.1016 92.6875 58.3516C92.3958 58.6016 92.0599 58.7995 91.6797 58.9453C91.3047 59.0859 90.8828 59.1562 90.4141 59.1562C89.9453 59.1562 89.5208 59.0859 89.1406 58.9453C88.7656 58.7995 88.4323 58.6016 88.1406 58.3516C87.849 58.1016 87.5964 57.8099 87.3828 57.4766C87.1693 57.138 86.9948 56.776 86.8594 56.3906C86.7188 56.0052 86.6146 55.6068 86.5469 55.1953C86.4792 54.7839 86.4427 54.375 86.4375 53.9688V52.6719C86.4427 52.2656 86.4766 51.8568 86.5391 51.4453C86.6068 51.0286 86.7109 50.6276 86.8516 50.2422C86.987 49.8568 87.1589 49.4974 87.3672 49.1641C87.5807 48.8255 87.8333 48.5286 88.125 48.2734C88.4167 48.0234 88.75 47.8281 89.125 47.6875C89.5052 47.5417 89.9297 47.4688 90.3984 47.4688C90.8672 47.4688 91.2917 47.5417 91.6719 47.6875C92.0521 47.8281 92.388 48.0234 92.6797 48.2734C92.9714 48.5234 93.2214 48.8177 93.4297 49.1562C93.6432 49.4896 93.8203 49.849 93.9609 50.2344C94.0964 50.6198 94.1953 51.0208 94.2578 51.4375C94.3255 51.8542 94.362 52.2656 94.3672 52.6719V53.9688ZM92.9375 52.6562C92.9323 52.3854 92.9141 52.1042 92.8828 51.8125C92.8516 51.5156 92.7995 51.2214 92.7266 50.9297C92.6484 50.6432 92.5469 50.3698 92.4219 50.1094C92.2969 49.8438 92.1406 49.6094 91.9531 49.4062C91.7656 49.2083 91.5443 49.0521 91.2891 48.9375C91.0339 48.8177 90.737 48.7578 90.3984 48.7578C90.0651 48.7578 89.7708 48.8177 89.5156 48.9375C89.2604 49.0573 89.0391 49.2161 88.8516 49.4141C88.6641 49.6172 88.5078 49.8516 88.3828 50.1172C88.2578 50.3776 88.1589 50.651 88.0859 50.9375C88.0078 51.2292 87.9505 51.5234 87.9141 51.8203C87.8828 52.112 87.8646 52.3906 87.8594 52.6562V53.9688C87.8646 54.2344 87.8828 54.5156 87.9141 54.8125C87.9505 55.1094 88.0078 55.401 88.0859 55.6875C88.1641 55.9792 88.2656 56.2578 88.3906 56.5234C88.5156 56.7891 88.6719 57.0208 88.8594 57.2188C89.0469 57.4219 89.2682 57.5833 89.5234 57.7031C89.7786 57.8229 90.0755 57.8828 90.4141 57.8828C90.7526 57.8828 91.0495 57.8229 91.3047 57.7031C91.5651 57.5833 91.7891 57.4219 91.9766 57.2188C92.1589 57.0208 92.3099 56.7917 92.4297 56.5312C92.5547 56.2656 92.6562 55.987 92.7344 55.6953C92.8073 55.4089 92.8568 55.1172 92.8828 54.8203C92.9141 54.5234 92.9323 54.2396 92.9375 53.9688V52.6562ZM103.938 57.5078C103.76 57.7161 103.573 57.9062 103.375 58.0781C103.177 58.2448 102.971 58.3906 102.758 58.5156C102.393 58.7344 102 58.8958 101.578 59C101.156 59.1094 100.714 59.1615 100.25 59.1562C99.7812 59.151 99.349 59.0807 98.9531 58.9453C98.5625 58.8047 98.2109 58.612 97.8984 58.3672C97.5859 58.1276 97.3125 57.8438 97.0781 57.5156C96.8438 57.1875 96.6484 56.8307 96.4922 56.4453C96.3307 56.0651 96.2083 55.6667 96.125 55.25C96.0469 54.8281 96.0052 54.4036 96 53.9766V52.6562C96.0052 52.2344 96.0417 51.8151 96.1094 51.3984C96.1823 50.9766 96.2917 50.5729 96.4375 50.1875C96.5833 49.8021 96.7656 49.4453 96.9844 49.1172C97.2031 48.7839 97.4661 48.4948 97.7734 48.25C98.0755 48.0104 98.4193 47.8203 98.8047 47.6797C99.1901 47.5391 99.6224 47.4688 100.102 47.4688C100.633 47.4688 101.122 47.5521 101.57 47.7188C102.018 47.8802 102.409 48.112 102.742 48.4141C103.076 48.7214 103.344 49.0911 103.547 49.5234C103.75 49.9505 103.875 50.4297 103.922 50.9609H102.492C102.435 50.6328 102.346 50.3307 102.227 50.0547C102.107 49.7734 101.951 49.5339 101.758 49.3359C101.56 49.138 101.326 48.9844 101.055 48.875C100.784 48.7604 100.469 48.7031 100.109 48.7031C99.7656 48.7031 99.4609 48.763 99.1953 48.8828C98.9297 48.9974 98.6979 49.1536 98.5 49.3516C98.3021 49.5495 98.138 49.7812 98.0078 50.0469C97.8776 50.3073 97.7708 50.5833 97.6875 50.875C97.6042 51.1667 97.5443 51.4635 97.5078 51.7656C97.4714 52.0677 97.4531 52.3594 97.4531 52.6406V53.9766C97.4583 54.263 97.4818 54.5599 97.5234 54.8672C97.5703 55.1693 97.6406 55.4661 97.7344 55.7578C97.8281 56.0495 97.9479 56.3255 98.0938 56.5859C98.2396 56.8464 98.4167 57.0755 98.625 57.2734C98.8281 57.4714 99.0651 57.6302 99.3359 57.75C99.6068 57.8646 99.9141 57.9245 100.258 57.9297C100.456 57.9349 100.661 57.9271 100.875 57.9062C101.094 57.8854 101.305 57.8438 101.508 57.7812C101.711 57.7188 101.901 57.6354 102.078 57.5312C102.255 57.4219 102.404 57.2812 102.523 57.1094L102.539 54.5547H100.227V53.3359H103.914L103.938 57.5078ZM113.586 53.9688C113.581 54.375 113.544 54.7865 113.477 55.2031C113.414 55.6146 113.315 56.013 113.18 56.3984C113.044 56.7839 112.87 57.1432 112.656 57.4766C112.448 57.8099 112.198 58.1016 111.906 58.3516C111.615 58.6016 111.279 58.7995 110.898 58.9453C110.523 59.0859 110.102 59.1562 109.633 59.1562C109.164 59.1562 108.74 59.0859 108.359 58.9453C107.984 58.7995 107.651 58.6016 107.359 58.3516C107.068 58.1016 106.815 57.8099 106.602 57.4766C106.388 57.138 106.214 56.776 106.078 56.3906C105.938 56.0052 105.833 55.6068 105.766 55.1953C105.698 54.7839 105.661 54.375 105.656 53.9688V52.6719C105.661 52.2656 105.695 51.8568 105.758 51.4453C105.826 51.0286 105.93 50.6276 106.07 50.2422C106.206 49.8568 106.378 49.4974 106.586 49.1641C106.799 48.8255 107.052 48.5286 107.344 48.2734C107.635 48.0234 107.969 47.8281 108.344 47.6875C108.724 47.5417 109.148 47.4688 109.617 47.4688C110.086 47.4688 110.51 47.5417 110.891 47.6875C111.271 47.8281 111.607 48.0234 111.898 48.2734C112.19 48.5234 112.44 48.8177 112.648 49.1562C112.862 49.4896 113.039 49.849 113.18 50.2344C113.315 50.6198 113.414 51.0208 113.477 51.4375C113.544 51.8542 113.581 52.2656 113.586 52.6719V53.9688ZM112.156 52.6562C112.151 52.3854 112.133 52.1042 112.102 51.8125C112.07 51.5156 112.018 51.2214 111.945 50.9297C111.867 50.6432 111.766 50.3698 111.641 50.1094C111.516 49.8438 111.359 49.6094 111.172 49.4062C110.984 49.2083 110.763 49.0521 110.508 48.9375C110.253 48.8177 109.956 48.7578 109.617 48.7578C109.284 48.7578 108.99 48.8177 108.734 48.9375C108.479 49.0573 108.258 49.2161 108.07 49.4141C107.883 49.6172 107.727 49.8516 107.602 50.1172C107.477 50.3776 107.378 50.651 107.305 50.9375C107.227 51.2292 107.169 51.5234 107.133 51.8203C107.102 52.112 107.083 52.3906 107.078 52.6562V53.9688C107.083 54.2344 107.102 54.5156 107.133 54.8125C107.169 55.1094 107.227 55.401 107.305 55.6875C107.383 55.9792 107.484 56.2578 107.609 56.5234C107.734 56.7891 107.891 57.0208 108.078 57.2188C108.266 57.4219 108.487 57.5833 108.742 57.7031C108.997 57.8229 109.294 57.8828 109.633 57.8828C109.971 57.8828 110.268 57.8229 110.523 57.7031C110.784 57.5833 111.008 57.4219 111.195 57.2188C111.378 57.0208 111.529 56.7917 111.648 56.5312C111.773 56.2656 111.875 55.987 111.953 55.6953C112.026 55.4089 112.076 55.1172 112.102 54.8203C112.133 54.5234 112.151 54.2396 112.156 53.9688V52.6562Z" fill="#F44D00"/>
<g filter="url(#filter0_d_668_2441)">
<rect x="35" y="83" width="120" height="120" rx="25.6719" fill="#F7F9F5"/>
<path fill-rule="evenodd" clip-rule="evenodd" d="M72.9622 83H129.328C143.506 83 155 94.4937 155 108.672V173.352C146.612 177.429 137.192 179.716 127.239 179.716C92.1234 179.716 63.6567 151.25 63.6567 116.134C63.6567 103.994 67.0591 92.6491 72.9622 83Z" fill="#D8EEEC"/>
<g clip-path="url(#clip0_668_2441)">
<path d="M99.1615 134.165C99.1615 134.165 99.127 134.165 99.1098 134.165C96.2997 134.165 93.9895 131.966 93.9895 129.165V108.279C93.9895 105.374 91.7397 102.969 88.8348 102.762C86.9125 102.624 84.9299 102.71 82.9042 103.055C72.1119 104.882 63.7419 113.847 62.6558 124.743C61.1904 139.449 72.6981 151.836 87.0935 151.836C87.1194 151.836 87.1366 151.836 87.1625 151.836C90.6708 151.827 93.5585 154.577 93.5585 158.085V175.928C93.5585 180.178 97.1789 183.592 101.403 183.195C102.308 183.109 103.222 182.98 104.135 182.79C114.712 180.609 122.754 171.567 123.634 160.8C124.815 146.302 113.402 134.165 99.1529 134.165H99.1615Z" fill="black"/>
<path d="M68.569 148.974C65.4572 148.327 62.4229 148.232 59.5352 148.586C58.3198 148.732 57.3371 149.638 57.0785 150.818C56.3372 154.275 56.2682 157.982 57.044 161.8C59.1559 172.222 67.5087 180.523 78.0337 182.704C80.3611 183.187 82.6541 183.359 84.8694 183.273C87.464 183.169 89.5759 181.204 89.8949 178.661C90.2569 175.851 90.1707 172.903 89.5587 169.877C87.4468 159.456 79.094 151.155 68.569 148.974Z" fill="#169F91"/>
<path d="M108.842 112.347C106.92 103.96 110.325 99.9345 115.704 108.805C120.428 103.27 123.453 107.055 119.178 113.873C129.505 107.063 131.022 113.873 126.531 118.243C136.323 121.433 131.78 125.976 123.953 125.519C132.539 134.294 125.238 134.854 117.092 129.062C113.618 139.587 109.084 136.561 109.817 126.484C104.541 127.484 102.274 123.7 106.274 119.623C93.9558 113.864 96.9814 109.322 108.851 112.347H108.842Z" fill="#6B9E1C"/>
</g>
</g>
<path d="M734.727 55.5781C734.659 56.1042 734.523 56.5885 734.32 57.0312C734.117 57.4688 733.854 57.8438 733.531 58.1562C733.203 58.474 732.815 58.7214 732.367 58.8984C731.924 59.0703 731.43 59.1562 730.883 59.1562C730.414 59.1562 729.987 59.0911 729.602 58.9609C729.221 58.8255 728.883 58.6406 728.586 58.4062C728.284 58.1719 728.023 57.8958 727.805 57.5781C727.591 57.2604 727.414 56.9141 727.273 56.5391C727.128 56.1641 727.018 55.7708 726.945 55.3594C726.878 54.9479 726.841 54.5312 726.836 54.1094V52.5234C726.841 52.1016 726.878 51.6849 726.945 51.2734C727.018 50.862 727.128 50.4688 727.273 50.0938C727.414 49.7188 727.591 49.3724 727.805 49.0547C728.023 48.7318 728.284 48.4531 728.586 48.2188C728.883 47.9844 729.221 47.8021 729.602 47.6719C729.982 47.5365 730.409 47.4688 730.883 47.4688C731.451 47.4688 731.958 47.5573 732.406 47.7344C732.854 47.9062 733.24 48.151 733.562 48.4688C733.885 48.7917 734.143 49.1771 734.336 49.625C734.534 50.0729 734.664 50.5677 734.727 51.1094H733.281C733.234 50.7656 733.154 50.4453 733.039 50.1484C732.924 49.8516 732.771 49.5911 732.578 49.3672C732.385 49.1432 732.148 48.9688 731.867 48.8438C731.591 48.7135 731.263 48.6484 730.883 48.6484C730.539 48.6484 730.234 48.7057 729.969 48.8203C729.708 48.9297 729.484 49.0807 729.297 49.2734C729.104 49.4661 728.943 49.6901 728.812 49.9453C728.688 50.2005 728.586 50.4714 728.508 50.7578C728.43 51.0443 728.372 51.3385 728.336 51.6406C728.305 51.9375 728.289 52.2266 728.289 52.5078V54.1094C728.289 54.3906 728.305 54.6823 728.336 54.9844C728.372 55.2812 728.43 55.5729 728.508 55.8594C728.586 56.151 728.688 56.4245 728.812 56.6797C728.938 56.9349 729.096 57.1589 729.289 57.3516C729.482 57.5495 729.708 57.7057 729.969 57.8203C730.229 57.9297 730.534 57.9844 730.883 57.9844C731.263 57.9844 731.591 57.9245 731.867 57.8047C732.148 57.6849 732.385 57.5156 732.578 57.2969C732.771 57.0833 732.924 56.8307 733.039 56.5391C733.154 56.2422 733.234 55.9219 733.281 55.5781H734.727ZM744.367 53.9688C744.362 54.375 744.326 54.7865 744.258 55.2031C744.195 55.6146 744.096 56.013 743.961 56.3984C743.826 56.7839 743.651 57.1432 743.438 57.4766C743.229 57.8099 742.979 58.1016 742.688 58.3516C742.396 58.6016 742.06 58.7995 741.68 58.9453C741.305 59.0859 740.883 59.1562 740.414 59.1562C739.945 59.1562 739.521 59.0859 739.141 58.9453C738.766 58.7995 738.432 58.6016 738.141 58.3516C737.849 58.1016 737.596 57.8099 737.383 57.4766C737.169 57.138 736.995 56.776 736.859 56.3906C736.719 56.0052 736.615 55.6068 736.547 55.1953C736.479 54.7839 736.443 54.375 736.438 53.9688V52.6719C736.443 52.2656 736.477 51.8568 736.539 51.4453C736.607 51.0286 736.711 50.6276 736.852 50.2422C736.987 49.8568 737.159 49.4974 737.367 49.1641C737.581 48.8255 737.833 48.5286 738.125 48.2734C738.417 48.0234 738.75 47.8281 739.125 47.6875C739.505 47.5417 739.93 47.4688 740.398 47.4688C740.867 47.4688 741.292 47.5417 741.672 47.6875C742.052 47.8281 742.388 48.0234 742.68 48.2734C742.971 48.5234 743.221 48.8177 743.43 49.1562C743.643 49.4896 743.82 49.849 743.961 50.2344C744.096 50.6198 744.195 51.0208 744.258 51.4375C744.326 51.8542 744.362 52.2656 744.367 52.6719V53.9688ZM742.938 52.6562C742.932 52.3854 742.914 52.1042 742.883 51.8125C742.852 51.5156 742.799 51.2214 742.727 50.9297C742.648 50.6432 742.547 50.3698 742.422 50.1094C742.297 49.8438 742.141 49.6094 741.953 49.4062C741.766 49.2083 741.544 49.0521 741.289 48.9375C741.034 48.8177 740.737 48.7578 740.398 48.7578C740.065 48.7578 739.771 48.8177 739.516 48.9375C739.26 49.0573 739.039 49.2161 738.852 49.4141C738.664 49.6172 738.508 49.8516 738.383 50.1172C738.258 50.3776 738.159 50.651 738.086 50.9375C738.008 51.2292 737.951 51.5234 737.914 51.8203C737.883 52.112 737.865 52.3906 737.859 52.6562V53.9688C737.865 54.2344 737.883 54.5156 737.914 54.8125C737.951 55.1094 738.008 55.401 738.086 55.6875C738.164 55.9792 738.266 56.2578 738.391 56.5234C738.516 56.7891 738.672 57.0208 738.859 57.2188C739.047 57.4219 739.268 57.5833 739.523 57.7031C739.779 57.8229 740.076 57.8828 740.414 57.8828C740.753 57.8828 741.049 57.8229 741.305 57.7031C741.565 57.5833 741.789 57.4219 741.977 57.2188C742.159 57.0208 742.31 56.7917 742.43 56.5312C742.555 56.2656 742.656 55.987 742.734 55.6953C742.807 55.4089 742.857 55.1172 742.883 54.8203C742.914 54.5234 742.932 54.2396 742.938 53.9688V52.6562ZM748.211 57.7734H753.773V59H746.766V47.625H748.211V57.7734ZM763.586 53.9688C763.581 54.375 763.544 54.7865 763.477 55.2031C763.414 55.6146 763.315 56.013 763.18 56.3984C763.044 56.7839 762.87 57.1432 762.656 57.4766C762.448 57.8099 762.198 58.1016 761.906 58.3516C761.615 58.6016 761.279 58.7995 760.898 58.9453C760.523 59.0859 760.102 59.1562 759.633 59.1562C759.164 59.1562 758.74 59.0859 758.359 58.9453C757.984 58.7995 757.651 58.6016 757.359 58.3516C757.068 58.1016 756.815 57.8099 756.602 57.4766C756.388 57.138 756.214 56.776 756.078 56.3906C755.938 56.0052 755.833 55.6068 755.766 55.1953C755.698 54.7839 755.661 54.375 755.656 53.9688V52.6719C755.661 52.2656 755.695 51.8568 755.758 51.4453C755.826 51.0286 755.93 50.6276 756.07 50.2422C756.206 49.8568 756.378 49.4974 756.586 49.1641C756.799 48.8255 757.052 48.5286 757.344 48.2734C757.635 48.0234 757.969 47.8281 758.344 47.6875C758.724 47.5417 759.148 47.4688 759.617 47.4688C760.086 47.4688 760.51 47.5417 760.891 47.6875C761.271 47.8281 761.607 48.0234 761.898 48.2734C762.19 48.5234 762.44 48.8177 762.648 49.1562C762.862 49.4896 763.039 49.849 763.18 50.2344C763.315 50.6198 763.414 51.0208 763.477 51.4375C763.544 51.8542 763.581 52.2656 763.586 52.6719V53.9688ZM762.156 52.6562C762.151 52.3854 762.133 52.1042 762.102 51.8125C762.07 51.5156 762.018 51.2214 761.945 50.9297C761.867 50.6432 761.766 50.3698 761.641 50.1094C761.516 49.8438 761.359 49.6094 761.172 49.4062C760.984 49.2083 760.763 49.0521 760.508 48.9375C760.253 48.8177 759.956 48.7578 759.617 48.7578C759.284 48.7578 758.99 48.8177 758.734 48.9375C758.479 49.0573 758.258 49.2161 758.07 49.4141C757.883 49.6172 757.727 49.8516 757.602 50.1172C757.477 50.3776 757.378 50.651 757.305 50.9375C757.227 51.2292 757.169 51.5234 757.133 51.8203C757.102 52.112 757.083 52.3906 757.078 52.6562V53.9688C757.083 54.2344 757.102 54.5156 757.133 54.8125C757.169 55.1094 757.227 55.401 757.305 55.6875C757.383 55.9792 757.484 56.2578 757.609 56.5234C757.734 56.7891 757.891 57.0208 758.078 57.2188C758.266 57.4219 758.487 57.5833 758.742 57.7031C758.997 57.8229 759.294 57.8828 759.633 57.8828C759.971 57.8828 760.268 57.8229 760.523 57.7031C760.784 57.5833 761.008 57.4219 761.195 57.2188C761.378 57.0208 761.529 56.7917 761.648 56.5312C761.773 56.2656 761.875 55.987 761.953 55.6953C762.026 55.4089 762.076 55.1172 762.102 54.8203C762.133 54.5234 762.151 54.2396 762.156 53.9688V52.6562ZM769.562 54.3594H767.289V59H765.852V47.625H769.188C769.719 47.6354 770.219 47.7109 770.688 47.8516C771.156 47.9922 771.568 48.2031 771.922 48.4844C772.271 48.7656 772.544 49.1198 772.742 49.5469C772.945 49.9688 773.047 50.4661 773.047 51.0391C773.047 51.4089 772.992 51.7474 772.883 52.0547C772.779 52.362 772.633 52.6406 772.445 52.8906C772.258 53.1406 772.034 53.362 771.773 53.5547C771.513 53.7474 771.227 53.9115 770.914 54.0469L773.328 58.9062L773.32 59H771.797L769.562 54.3594ZM767.289 53.1719H769.227C769.549 53.1667 769.854 53.1172 770.141 53.0234C770.427 52.9245 770.68 52.7839 770.898 52.6016C771.112 52.4193 771.281 52.1979 771.406 51.9375C771.531 51.6719 771.594 51.3672 771.594 51.0234C771.594 50.6589 771.534 50.3411 771.414 50.0703C771.294 49.7943 771.128 49.5625 770.914 49.375C770.701 49.1927 770.445 49.0547 770.148 48.9609C769.857 48.8672 769.536 48.8177 769.188 48.8125H767.289V53.1719ZM781.359 56.125C781.359 55.776 781.279 55.4818 781.117 55.2422C780.961 55.0026 780.758 54.7995 780.508 54.6328C780.258 54.4714 779.982 54.3359 779.68 54.2266C779.383 54.1172 779.096 54.0182 778.82 53.9297C778.419 53.7995 778.01 53.6432 777.594 53.4609C777.182 53.2734 776.807 53.0495 776.469 52.7891C776.125 52.5234 775.844 52.2109 775.625 51.8516C775.411 51.487 775.305 51.0599 775.305 50.5703C775.305 50.0807 775.411 49.6432 775.625 49.2578C775.844 48.8724 776.128 48.5469 776.477 48.2812C776.826 48.0156 777.221 47.8151 777.664 47.6797C778.107 47.5391 778.552 47.4688 779 47.4688C779.495 47.4688 779.971 47.5521 780.43 47.7188C780.888 47.8802 781.294 48.1094 781.648 48.4062C782.003 48.7031 782.286 49.0625 782.5 49.4844C782.714 49.9062 782.826 50.3776 782.836 50.8984H781.352C781.31 50.5703 781.229 50.2734 781.109 50.0078C780.99 49.737 780.831 49.5052 780.633 49.3125C780.435 49.1198 780.198 48.9714 779.922 48.8672C779.651 48.7578 779.344 48.7031 779 48.7031C778.724 48.7031 778.453 48.7422 778.188 48.8203C777.927 48.8984 777.695 49.0156 777.492 49.1719C777.284 49.3281 777.117 49.5208 776.992 49.75C776.872 49.9792 776.812 50.2448 776.812 50.5469C776.818 50.875 776.901 51.1536 777.062 51.3828C777.224 51.6068 777.43 51.7969 777.68 51.9531C777.924 52.1094 778.19 52.2396 778.477 52.3438C778.768 52.4479 779.042 52.5391 779.297 52.6172C779.719 52.7474 780.141 52.9062 780.562 53.0938C780.984 53.276 781.37 53.5104 781.719 53.7969C782.062 54.0625 782.339 54.388 782.547 54.7734C782.76 55.1589 782.867 55.6042 782.867 56.1094C782.867 56.6198 782.753 57.0651 782.523 57.4453C782.299 57.8255 782.008 58.1406 781.648 58.3906C781.289 58.6458 780.883 58.8385 780.43 58.9688C779.977 59.0938 779.523 59.1562 779.07 59.1562C778.529 59.1562 777.995 59.0651 777.469 58.8828C776.948 58.7005 776.495 58.4375 776.109 58.0938C775.766 57.7969 775.492 57.4505 775.289 57.0547C775.091 56.6536 774.984 56.2083 774.969 55.7188H776.445C776.492 56.0729 776.589 56.388 776.734 56.6641C776.88 56.9349 777.068 57.1641 777.297 57.3516C777.526 57.5443 777.789 57.6901 778.086 57.7891C778.388 57.8828 778.716 57.9297 779.07 57.9297C779.352 57.9297 779.628 57.8958 779.898 57.8281C780.174 57.7552 780.419 57.6432 780.633 57.4922C780.846 57.3464 781.021 57.1615 781.156 56.9375C781.292 56.7083 781.359 56.4375 781.359 56.125Z" fill="#F44D00"/>
<circle cx="569" cy="124" r="25" fill="#14171F"/>
<path d="M631.16 123.488L630.488 126.632H633.368V130.328H629.696L628.904 134H625.064L625.856 130.328H621.872L621.08 134H617.24L618.032 130.328H614.48V126.632H618.824L619.496 123.488H616.016V119.792H620.264L621.032 116.24H624.872L624.104 119.792H628.088L628.856 116.24H632.696L631.928 119.792H634.904V123.488H631.16ZM627.32 123.488H623.336L622.664 126.632H626.648L627.32 123.488ZM636.351 120.296V116.48H642.999V134H638.727V120.296H636.351ZM645.903 130.88V127.568L653.487 116.72H658.071V127.328H660.039V130.88H658.071V134H653.967V130.88H645.903ZM654.255 121.232L650.223 127.328H654.255V121.232ZM661.617 120.296V116.48H668.265V134H663.993V120.296H661.617ZM682.256 119.552L676.232 134H672.032L678.128 120.008H670.664V116.504H682.256V119.552ZM683.484 120.296V116.48H690.132V134H685.86V120.296H683.484ZM704.315 117.152V120.44H697.451V123.992H702.587V127.184H697.451V134H693.347V117.152H704.315Z" fill="#14171F"/>
<circle cx="569" cy="194" r="25" fill="#4267FA"/>
<path d="M631.16 191.488L630.488 194.632H633.368V198.328H629.696L628.904 202H625.064L625.856 198.328H621.872L621.08 202H617.24L618.032 198.328H614.48V194.632H618.824L619.496 191.488H616.016V187.792H620.264L621.032 184.24H624.872L624.104 187.792H628.088L628.856 184.24H632.696L631.928 187.792H634.904V191.488H631.16ZM627.32 191.488H623.336L622.664 194.632H626.648L627.32 191.488ZM636.879 198.88V195.568L644.463 184.72H649.047V195.328H651.015V198.88H649.047V202H644.943V198.88H636.879ZM645.231 189.232L641.199 195.328H645.231V189.232ZM652.881 198.712C653.425 198.28 653.673 198.08 653.625 198.112C655.193 196.816 656.425 195.752 657.321 194.92C658.233 194.088 659.001 193.216 659.625 192.304C660.249 191.392 660.561 190.504 660.561 189.64C660.561 188.984 660.409 188.472 660.105 188.104C659.801 187.736 659.345 187.552 658.737 187.552C658.129 187.552 657.649 187.784 657.297 188.248C656.961 188.696 656.793 189.336 656.793 190.168H652.833C652.865 188.808 653.153 187.672 653.697 186.76C654.257 185.848 654.985 185.176 655.881 184.744C656.793 184.312 657.801 184.096 658.905 184.096C660.809 184.096 662.241 184.584 663.201 185.56C664.177 186.536 664.665 187.808 664.665 189.376C664.665 191.088 664.081 192.68 662.913 194.152C661.745 195.608 660.257 197.032 658.449 198.424H664.929V201.76H652.881V198.712ZM675.4 189.208C675.272 188.616 675.048 188.176 674.728 187.888C674.408 187.584 673.952 187.432 673.36 187.432C672.448 187.432 671.792 187.832 671.392 188.632C670.992 189.416 670.784 190.664 670.768 192.376C671.12 191.816 671.624 191.376 672.28 191.056C672.952 190.736 673.688 190.576 674.488 190.576C676.056 190.576 677.312 191.072 678.256 192.064C679.216 193.056 679.696 194.44 679.696 196.216C679.696 197.384 679.456 198.408 678.976 199.288C678.512 200.168 677.824 200.856 676.912 201.352C676.016 201.848 674.952 202.096 673.72 202.096C671.256 202.096 669.544 201.328 668.584 199.792C667.624 198.24 667.144 196.016 667.144 193.12C667.144 190.08 667.648 187.824 668.656 186.352C669.68 184.864 671.312 184.12 673.552 184.12C674.752 184.12 675.76 184.36 676.576 184.84C677.408 185.304 678.032 185.92 678.448 186.688C678.88 187.456 679.136 188.296 679.216 189.208H675.4ZM673.504 193.816C672.816 193.816 672.24 194.024 671.776 194.44C671.328 194.84 671.104 195.416 671.104 196.168C671.104 196.936 671.312 197.536 671.728 197.968C672.16 198.4 672.768 198.616 673.552 198.616C674.256 198.616 674.808 198.408 675.208 197.992C675.624 197.56 675.832 196.976 675.832 196.24C675.832 195.488 675.632 194.896 675.232 194.464C674.832 194.032 674.256 193.816 673.504 193.816ZM693.202 187.552L687.178 202H682.978L689.074 188.008H681.61V184.504H693.202V187.552ZM706.237 185.152V188.44H699.373V191.992H704.509V195.184H699.373V202H695.269V185.152H706.237ZM718.882 199.024H712.594L711.586 202H707.29L713.386 185.152H718.138L724.234 202H719.89L718.882 199.024ZM717.826 195.856L715.738 189.688L713.674 195.856H717.826Z" fill="#4267FA"/>
<circle cx="569" cy="264" r="25" fill="#F25292"/>
<path d="M631.16 261.488L630.488 264.632H633.368V268.328H629.696L628.904 272H625.064L625.856 268.328H621.872L621.08 272H617.24L618.032 268.328H614.48V264.632H618.824L619.496 261.488H616.016V257.792H620.264L621.032 254.24H624.872L624.104 257.792H628.088L628.856 254.24H632.696L631.928 257.792H634.904V261.488H631.16ZM627.32 261.488H623.336L622.664 264.632H626.648L627.32 261.488ZM648.159 255.152V258.44H641.295V261.992H646.431V265.184H641.295V272H637.191V255.152H648.159ZM649.764 268.712C650.308 268.28 650.556 268.08 650.508 268.112C652.076 266.816 653.308 265.752 654.204 264.92C655.116 264.088 655.884 263.216 656.508 262.304C657.132 261.392 657.444 260.504 657.444 259.64C657.444 258.984 657.292 258.472 656.988 258.104C656.684 257.736 656.228 257.552 655.62 257.552C655.012 257.552 654.532 257.784 654.18 258.248C653.844 258.696 653.676 259.336 653.676 260.168H649.716C649.748 258.808 650.036 257.672 650.58 256.76C651.14 255.848 651.868 255.176 652.764 254.744C653.676 254.312 654.684 254.096 655.788 254.096C657.692 254.096 659.124 254.584 660.084 255.56C661.06 256.536 661.548 257.808 661.548 259.376C661.548 261.088 660.964 262.68 659.796 264.152C658.628 265.608 657.14 267.032 655.332 268.424H661.812V271.76H649.764V268.712ZM675.955 258.056H668.467V261.368C668.787 261.016 669.235 260.728 669.811 260.504C670.387 260.28 671.011 260.168 671.683 260.168C672.883 260.168 673.875 260.44 674.659 260.984C675.459 261.528 676.043 262.232 676.411 263.096C676.779 263.96 676.963 264.896 676.963 265.904C676.963 267.776 676.435 269.264 675.379 270.368C674.323 271.456 672.835 272 670.915 272C669.635 272 668.523 271.784 667.579 271.352C666.635 270.904 665.907 270.288 665.395 269.504C664.883 268.72 664.603 267.816 664.555 266.792H668.563C668.659 267.288 668.891 267.704 669.259 268.04C669.627 268.36 670.131 268.52 670.771 268.52C671.523 268.52 672.083 268.28 672.451 267.8C672.819 267.32 673.003 266.68 673.003 265.88C673.003 265.096 672.811 264.496 672.427 264.08C672.043 263.664 671.483 263.456 670.747 263.456C670.203 263.456 669.755 263.592 669.403 263.864C669.051 264.12 668.819 264.464 668.707 264.896H664.747V254.456H675.955V258.056ZM679.084 268.712C679.628 268.28 679.876 268.08 679.828 268.112C681.396 266.816 682.628 265.752 683.524 264.92C684.436 264.088 685.204 263.216 685.828 262.304C686.452 261.392 686.764 260.504 686.764 259.64C686.764 258.984 686.612 258.472 686.308 258.104C686.004 257.736 685.548 257.552 684.94 257.552C684.332 257.552 683.852 257.784 683.5 258.248C683.164 258.696 682.996 259.336 682.996 260.168H679.036C679.068 258.808 679.356 257.672 679.9 256.76C680.46 255.848 681.188 255.176 682.084 254.744C682.996 254.312 684.004 254.096 685.108 254.096C687.012 254.096 688.444 254.584 689.404 255.56C690.38 256.536 690.868 257.808 690.868 259.376C690.868 261.088 690.284 262.68 689.116 264.152C687.948 265.608 686.46 267.032 684.652 268.424H691.132V271.76H679.084V268.712ZM697.355 266.864C697.595 268.128 698.331 268.76 699.563 268.76C700.411 268.76 701.011 268.384 701.363 267.632C701.715 266.88 701.891 265.656 701.891 263.96C701.539 264.456 701.059 264.84 700.451 265.112C699.843 265.384 699.163 265.52 698.411 265.52C697.387 265.52 696.475 265.312 695.675 264.896C694.875 264.464 694.243 263.832 693.779 263C693.331 262.152 693.107 261.128 693.107 259.928C693.107 258.744 693.347 257.712 693.827 256.832C694.323 255.952 695.019 255.272 695.915 254.792C696.827 254.312 697.899 254.072 699.131 254.072C701.499 254.072 703.155 254.808 704.099 256.28C705.043 257.752 705.515 259.92 705.515 262.784C705.515 264.864 705.323 266.584 704.939 267.944C704.571 269.288 703.939 270.312 703.043 271.016C702.163 271.72 700.955 272.072 699.419 272.072C698.203 272.072 697.163 271.832 696.299 271.352C695.451 270.872 694.795 270.24 694.331 269.456C693.883 268.672 693.627 267.808 693.563 266.864H697.355ZM699.347 262.28C700.019 262.28 700.555 262.08 700.955 261.68C701.355 261.264 701.555 260.704 701.555 260C701.555 259.232 701.347 258.64 700.931 258.224C700.515 257.808 699.955 257.6 699.251 257.6C698.547 257.6 697.987 257.816 697.571 258.248C697.171 258.664 696.971 259.24 696.971 259.976C696.971 260.664 697.171 261.224 697.571 261.656C697.987 262.072 698.579 262.28 699.347 262.28ZM707.561 268.712C708.105 268.28 708.353 268.08 708.305 268.112C709.873 266.816 711.105 265.752 712.001 264.92C712.913 264.088 713.681 263.216 714.305 262.304C714.929 261.392 715.241 260.504 715.241 259.64C715.241 258.984 715.089 258.472 714.785 258.104C714.481 257.736 714.025 257.552 713.417 257.552C712.809 257.552 712.329 257.784 711.977 258.248C711.641 258.696 711.473 259.336 711.473 260.168H707.513C707.545 258.808 707.833 257.672 708.377 256.76C708.937 255.848 709.665 255.176 710.561 254.744C711.473 254.312 712.481 254.096 713.585 254.096C715.489 254.096 716.921 254.584 717.881 255.56C718.857 256.536 719.345 257.808 719.345 259.376C719.345 261.088 718.761 262.68 717.593 264.152C716.425 265.608 714.937 267.032 713.129 268.424H719.609V271.76H707.561V268.712Z" fill="#F25292"/>
<circle cx="569" cy="334" r="25" fill="#5AA000"/>
<path d="M631.16 331.488L630.488 334.632H633.368V338.328H629.696L628.904 342H625.064L625.856 338.328H621.872L621.08 342H617.24L618.032 338.328H614.48V334.632H618.824L619.496 331.488H616.016V327.792H620.264L621.032 324.24H624.872L624.104 327.792H628.088L628.856 324.24H632.696L631.928 327.792H634.904V331.488H631.16ZM627.32 331.488H623.336L622.664 334.632H626.648L627.32 331.488ZM649.119 328.056H641.631V331.368C641.951 331.016 642.399 330.728 642.975 330.504C643.551 330.28 644.175 330.168 644.847 330.168C646.047 330.168 647.039 330.44 647.823 330.984C648.623 331.528 649.207 332.232 649.575 333.096C649.943 333.96 650.127 334.896 650.127 335.904C650.127 337.776 649.599 339.264 648.543 340.368C647.487 341.456 645.999 342 644.079 342C642.799 342 641.687 341.784 640.743 341.352C639.799 340.904 639.071 340.288 638.559 339.504C638.047 338.72 637.767 337.816 637.719 336.792H641.727C641.823 337.288 642.055 337.704 642.423 338.04C642.791 338.36 643.295 338.52 643.935 338.52C644.687 338.52 645.247 338.28 645.615 337.8C645.983 337.32 646.167 336.68 646.167 335.88C646.167 335.096 645.975 334.496 645.591 334.08C645.207 333.664 644.647 333.456 643.911 333.456C643.367 333.456 642.919 333.592 642.567 333.864C642.215 334.12 641.983 334.464 641.871 334.896H637.911V324.456H649.119V328.056ZM663.289 339.024H657.001L655.993 342H651.697L657.793 325.152H662.545L668.641 342H664.297L663.289 339.024ZM662.233 335.856L660.145 329.688L658.081 335.856H662.233ZM680.984 339.024H674.696L673.688 342H669.392L675.488 325.152H680.24L686.336 342H681.992L680.984 339.024ZM679.928 335.856L677.84 329.688L675.776 335.856H679.928ZM687.783 333C687.783 330.248 688.311 328.08 689.367 326.496C690.439 324.912 692.159 324.12 694.527 324.12C696.895 324.12 698.607 324.912 699.663 326.496C700.735 328.08 701.271 330.248 701.271 333C701.271 335.784 700.735 337.968 699.663 339.552C698.607 341.136 696.895 341.928 694.527 341.928C692.159 341.928 690.439 341.136 689.367 339.552C688.311 337.968 687.783 335.784 687.783 333ZM697.239 333C697.239 331.384 697.063 330.144 696.711 329.28C696.359 328.4 695.631 327.96 694.527 327.96C693.423 327.96 692.695 328.4 692.343 329.28C691.991 330.144 691.815 331.384 691.815 333C691.815 334.088 691.879 334.992 692.007 335.712C692.135 336.416 692.391 336.992 692.775 337.44C693.175 337.872 693.759 338.088 694.527 338.088C695.295 338.088 695.871 337.872 696.255 337.44C696.655 336.992 696.919 336.416 697.047 335.712C697.175 334.992 697.239 334.088 697.239 333ZM703.439 333C703.439 330.248 703.967 328.08 705.023 326.496C706.095 324.912 707.815 324.12 710.183 324.12C712.551 324.12 714.263 324.912 715.319 326.496C716.391 328.08 716.927 330.248 716.927 333C716.927 335.784 716.391 337.968 715.319 339.552C714.263 341.136 712.551 341.928 710.183 341.928C707.815 341.928 706.095 341.136 705.023 339.552C703.967 337.968 703.439 335.784 703.439 333ZM712.895 333C712.895 331.384 712.719 330.144 712.367 329.28C712.015 328.4 711.287 327.96 710.183 327.96C709.079 327.96 708.351 328.4 707.999 329.28C707.647 330.144 707.471 331.384 707.471 333C707.471 334.088 707.535 334.992 707.663 335.712C707.791 336.416 708.047 336.992 708.431 337.44C708.831 337.872 709.415 338.088 710.183 338.088C710.951 338.088 711.527 337.872 711.911 337.44C712.311 336.992 712.575 336.416 712.703 335.712C712.831 334.992 712.895 334.088 712.895 333ZM719.096 333C719.096 330.248 719.624 328.08 720.68 326.496C721.752 324.912 723.472 324.12 725.84 324.12C728.208 324.12 729.92 324.912 730.976 326.496C732.048 328.08 732.584 330.248 732.584 333C732.584 335.784 732.048 337.968 730.976 339.552C729.92 341.136 728.208 341.928 725.84 341.928C723.472 341.928 721.752 341.136 720.68 339.552C719.624 337.968 719.096 335.784 719.096 333ZM728.552 333C728.552 331.384 728.376 330.144 728.024 329.28C727.672 328.4 726.944 327.96 725.84 327.96C724.736 327.96 724.008 328.4 723.656 329.28C723.304 330.144 723.128 331.384 723.128 333C723.128 334.088 723.192 334.992 723.32 335.712C723.448 336.416 723.704 336.992 724.088 337.44C724.488 337.872 725.072 338.088 725.84 338.088C726.608 338.088 727.184 337.872 727.568 337.44C727.968 336.992 728.232 336.416 728.36 335.712C728.488 334.992 728.552 334.088 728.552 333Z" fill="#5AA000"/>
<circle cx="809" cy="124" r="25" fill="#169F91"/>
<path d="M871.16 123.488L870.488 126.632H873.368V130.328H869.696L868.904 134H865.064L865.856 130.328H861.872L861.08 134H857.24L858.032 130.328H854.48V126.632H858.824L859.496 123.488H856.016V119.792H860.264L861.032 116.24H864.872L864.104 119.792H868.088L868.856 116.24H872.696L871.928 119.792H874.904V123.488H871.16ZM867.32 123.488H863.336L862.664 126.632H866.648L867.32 123.488ZM876.351 120.296V116.48H882.999V134H878.727V120.296H876.351ZM894.471 121.208C894.343 120.616 894.119 120.176 893.799 119.888C893.479 119.584 893.023 119.432 892.431 119.432C891.519 119.432 890.863 119.832 890.463 120.632C890.063 121.416 889.855 122.664 889.839 124.376C890.191 123.816 890.695 123.376 891.351 123.056C892.023 122.736 892.759 122.576 893.559 122.576C895.127 122.576 896.383 123.072 897.327 124.064C898.287 125.056 898.767 126.44 898.767 128.216C898.767 129.384 898.527 130.408 898.047 131.288C897.583 132.168 896.895 132.856 895.983 133.352C895.087 133.848 894.023 134.096 892.791 134.096C890.327 134.096 888.615 133.328 887.655 131.792C886.695 130.24 886.215 128.016 886.215 125.12C886.215 122.08 886.719 119.824 887.727 118.352C888.751 116.864 890.383 116.12 892.623 116.12C893.823 116.12 894.831 116.36 895.647 116.84C896.479 117.304 897.103 117.92 897.519 118.688C897.951 119.456 898.207 120.296 898.287 121.208H894.471ZM892.575 125.816C891.887 125.816 891.311 126.024 890.847 126.44C890.399 126.84 890.175 127.416 890.175 128.168C890.175 128.936 890.383 129.536 890.799 129.968C891.231 130.4 891.839 130.616 892.623 130.616C893.327 130.616 893.879 130.408 894.279 129.992C894.695 129.56 894.903 128.976 894.903 128.24C894.903 127.488 894.703 126.896 894.303 126.464C893.903 126.032 893.327 125.816 892.575 125.816ZM905.504 128.864C905.744 130.128 906.48 130.76 907.712 130.76C908.56 130.76 909.16 130.384 909.512 129.632C909.864 128.88 910.04 127.656 910.04 125.96C909.688 126.456 909.208 126.84 908.6 127.112C907.992 127.384 907.312 127.52 906.56 127.52C905.536 127.52 904.624 127.312 903.824 126.896C903.024 126.464 902.392 125.832 901.928 125C901.48 124.152 901.256 123.128 901.256 121.928C901.256 120.744 901.496 119.712 901.976 118.832C902.472 117.952 903.168 117.272 904.064 116.792C904.976 116.312 906.048 116.072 907.28 116.072C909.648 116.072 911.304 116.808 912.248 118.28C913.192 119.752 913.664 121.92 913.664 124.784C913.664 126.864 913.472 128.584 913.088 129.944C912.72 131.288 912.088 132.312 911.192 133.016C910.312 133.72 909.104 134.072 907.568 134.072C906.352 134.072 905.312 133.832 904.448 133.352C903.6 132.872 902.944 132.24 902.48 131.456C902.032 130.672 901.776 129.808 901.712 128.864H905.504ZM907.496 124.28C908.168 124.28 908.704 124.08 909.104 123.68C909.504 123.264 909.704 122.704 909.704 122C909.704 121.232 909.496 120.64 909.08 120.224C908.664 119.808 908.104 119.6 907.4 119.6C906.696 119.6 906.136 119.816 905.72 120.248C905.32 120.664 905.12 121.24 905.12 121.976C905.12 122.664 905.32 123.224 905.72 123.656C906.136 124.072 906.728 124.28 907.496 124.28ZM927.229 117.152V120.44H920.365V123.992H925.501V127.184H920.365V134H916.261V117.152H927.229ZM933.394 128.864C933.634 130.128 934.37 130.76 935.602 130.76C936.45 130.76 937.05 130.384 937.402 129.632C937.754 128.88 937.93 127.656 937.93 125.96C937.578 126.456 937.098 126.84 936.49 127.112C935.882 127.384 935.202 127.52 934.45 127.52C933.426 127.52 932.514 127.312 931.714 126.896C930.914 126.464 930.282 125.832 929.818 125C929.37 124.152 929.146 123.128 929.146 121.928C929.146 120.744 929.386 119.712 929.866 118.832C930.362 117.952 931.058 117.272 931.954 116.792C932.866 116.312 933.938 116.072 935.17 116.072C937.538 116.072 939.194 116.808 940.138 118.28C941.082 119.752 941.554 121.92 941.554 124.784C941.554 126.864 941.362 128.584 940.978 129.944C940.61 131.288 939.978 132.312 939.082 133.016C938.202 133.72 936.994 134.072 935.458 134.072C934.242 134.072 933.202 133.832 932.338 133.352C931.49 132.872 930.834 132.24 930.37 131.456C929.922 130.672 929.666 129.808 929.602 128.864H933.394ZM935.386 124.28C936.058 124.28 936.594 124.08 936.994 123.68C937.394 123.264 937.594 122.704 937.594 122C937.594 121.232 937.386 120.64 936.97 120.224C936.554 119.808 935.994 119.6 935.29 119.6C934.586 119.6 934.026 119.816 933.61 120.248C933.21 120.664 933.01 121.24 933.01 121.976C933.01 122.664 933.21 123.224 933.61 123.656C934.026 124.072 934.618 124.28 935.386 124.28ZM943.312 120.296V116.48H949.96V134H945.688V120.296H943.312Z" fill="#169F91"/>
<circle cx="809" cy="194" r="25" fill="#FF4934"/>
<path d="M871.16 191.488L870.488 194.632H873.368V198.328H869.696L868.904 202H865.064L865.856 198.328H861.872L861.08 202H857.24L858.032 198.328H854.48V194.632H858.824L859.496 191.488H856.016V187.792H860.264L861.032 184.24H864.872L864.104 187.792H868.088L868.856 184.24H872.696L871.928 187.792H874.904V191.488H871.16ZM867.32 191.488H863.336L862.664 194.632H866.648L867.32 191.488ZM888.159 185.152V188.44H881.295V191.992H886.431V195.184H881.295V202H877.191V185.152H888.159ZM901.284 185.152V188.44H894.42V191.992H899.556V195.184H894.42V202H890.316V185.152H901.284ZM903.129 198.88V195.568L910.713 184.72H915.297V195.328H917.265V198.88H915.297V202H911.193V198.88H903.129ZM911.481 189.232L907.449 195.328H911.481V189.232ZM923.691 196.864C923.931 198.128 924.667 198.76 925.899 198.76C926.747 198.76 927.347 198.384 927.699 197.632C928.051 196.88 928.227 195.656 928.227 193.96C927.875 194.456 927.395 194.84 926.787 195.112C926.179 195.384 925.499 195.52 924.747 195.52C923.723 195.52 922.811 195.312 922.011 194.896C921.211 194.464 920.579 193.832 920.115 193C919.667 192.152 919.443 191.128 919.443 189.928C919.443 188.744 919.683 187.712 920.163 186.832C920.659 185.952 921.355 185.272 922.251 184.792C923.163 184.312 924.235 184.072 925.467 184.072C927.835 184.072 929.491 184.808 930.435 186.28C931.379 187.752 931.851 189.92 931.851 192.784C931.851 194.864 931.659 196.584 931.275 197.944C930.907 199.288 930.275 200.312 929.379 201.016C928.499 201.72 927.291 202.072 925.755 202.072C924.539 202.072 923.499 201.832 922.635 201.352C921.787 200.872 921.131 200.24 920.667 199.456C920.219 198.672 919.963 197.808 919.899 196.864H923.691ZM925.683 192.28C926.355 192.28 926.891 192.08 927.291 191.68C927.691 191.264 927.891 190.704 927.891 190C927.891 189.232 927.683 188.64 927.267 188.224C926.851 187.808 926.291 187.6 925.587 187.6C924.883 187.6 924.323 187.816 923.907 188.248C923.507 188.664 923.307 189.24 923.307 189.976C923.307 190.664 923.507 191.224 923.907 191.656C924.323 192.072 924.915 192.28 925.683 192.28ZM934.185 189.424C934.249 187.712 934.809 186.392 935.865 185.464C936.921 184.536 938.353 184.072 940.161 184.072C941.361 184.072 942.385 184.28 943.233 184.696C944.097 185.112 944.745 185.68 945.177 186.4C945.625 187.12 945.849 187.928 945.849 188.824C945.849 189.88 945.585 190.744 945.057 191.416C944.529 192.072 943.913 192.52 943.209 192.76V192.856C944.121 193.16 944.841 193.664 945.369 194.368C945.897 195.072 946.161 195.976 946.161 197.08C946.161 198.072 945.929 198.952 945.465 199.72C945.017 200.472 944.353 201.064 943.473 201.496C942.609 201.928 941.577 202.144 940.377 202.144C938.457 202.144 936.921 201.672 935.769 200.728C934.633 199.784 934.033 198.36 933.969 196.456H937.953C937.969 197.16 938.169 197.72 938.553 198.136C938.937 198.536 939.497 198.736 940.233 198.736C940.857 198.736 941.337 198.56 941.673 198.208C942.025 197.84 942.201 197.36 942.201 196.768C942.201 196 941.953 195.448 941.457 195.112C940.977 194.76 940.201 194.584 939.129 194.584H938.361V191.248H939.129C939.945 191.248 940.601 191.112 941.097 190.84C941.609 190.552 941.865 190.048 941.865 189.328C941.865 188.752 941.705 188.304 941.385 187.984C941.065 187.664 940.625 187.504 940.065 187.504C939.457 187.504 939.001 187.688 938.697 188.056C938.409 188.424 938.241 188.88 938.193 189.424H934.185ZM948.668 198.88V195.568L956.252 184.72H960.836V195.328H962.804V198.88H960.836V202H956.732V198.88H948.668ZM957.02 189.232L952.988 195.328H957.02V189.232Z" fill="#FF4934"/>
<circle cx="809" cy="264" r="25" fill="#FFB800"/>
<path d="M871.16 261.488L870.488 264.632H873.368V268.328H869.696L868.904 272H865.064L865.856 268.328H861.872L861.08 272H857.24L858.032 268.328H854.48V264.632H858.824L859.496 261.488H856.016V257.792H860.264L861.032 254.24H864.872L864.104 257.792H868.088L868.856 254.24H872.696L871.928 257.792H874.904V261.488H871.16ZM867.32 261.488H863.336L862.664 264.632H866.648L867.32 261.488ZM888.159 255.152V258.44H881.295V261.992H886.431V265.184H881.295V272H877.191V255.152H888.159ZM901.284 255.152V258.44H894.42V261.992H899.556V265.184H894.42V272H890.316V255.152H901.284ZM913.641 263.36C914.617 263.568 915.401 264.056 915.993 264.824C916.585 265.576 916.881 266.44 916.881 267.416C916.881 268.824 916.385 269.944 915.393 270.776C914.417 271.592 913.049 272 911.289 272H903.441V255.152H911.025C912.737 255.152 914.073 255.544 915.033 256.328C916.009 257.112 916.497 258.176 916.497 259.52C916.497 260.512 916.233 261.336 915.705 261.992C915.193 262.648 914.505 263.104 913.641 263.36ZM907.545 261.968H910.233C910.905 261.968 911.417 261.824 911.769 261.536C912.137 261.232 912.321 260.792 912.321 260.216C912.321 259.64 912.137 259.2 911.769 258.896C911.417 258.592 910.905 258.44 910.233 258.44H907.545V261.968ZM910.569 268.688C911.257 268.688 911.785 268.536 912.153 268.232C912.537 267.912 912.729 267.456 912.729 266.864C912.729 266.272 912.529 265.808 912.129 265.472C911.745 265.136 911.209 264.968 910.521 264.968H907.545V268.688H910.569ZM921.733 262.592C920.229 261.792 919.477 260.536 919.477 258.824C919.477 257.96 919.701 257.176 920.149 256.472C920.597 255.752 921.277 255.184 922.189 254.768C923.101 254.336 924.221 254.12 925.549 254.12C926.877 254.12 927.989 254.336 928.885 254.768C929.797 255.184 930.477 255.752 930.925 256.472C931.373 257.176 931.597 257.96 931.597 258.824C931.597 259.688 931.389 260.44 930.973 261.08C930.573 261.72 930.029 262.224 929.341 262.592C930.205 263.008 930.869 263.584 931.333 264.32C931.797 265.04 932.029 265.888 932.029 266.864C932.029 268 931.741 268.984 931.165 269.816C930.589 270.632 929.805 271.256 928.813 271.688C927.837 272.12 926.749 272.336 925.549 272.336C924.349 272.336 923.253 272.12 922.261 271.688C921.285 271.256 920.509 270.632 919.933 269.816C919.357 268.984 919.069 268 919.069 266.864C919.069 265.872 919.301 265.016 919.765 264.296C920.229 263.56 920.885 262.992 921.733 262.592ZM927.613 259.448C927.613 258.792 927.421 258.288 927.037 257.936C926.669 257.568 926.173 257.384 925.549 257.384C924.925 257.384 924.421 257.568 924.037 257.936C923.669 258.304 923.485 258.816 923.485 259.472C923.485 260.096 923.677 260.592 924.061 260.96C924.445 261.312 924.941 261.488 925.549 261.488C926.157 261.488 926.653 261.304 927.037 260.936C927.421 260.568 927.613 260.072 927.613 259.448ZM925.549 264.368C924.797 264.368 924.189 264.576 923.725 264.992C923.261 265.392 923.029 265.952 923.029 266.672C923.029 267.344 923.253 267.896 923.701 268.328C924.165 268.76 924.781 268.976 925.549 268.976C926.317 268.976 926.917 268.76 927.349 268.328C927.797 267.896 928.021 267.344 928.021 266.672C928.021 265.968 927.789 265.408 927.325 264.992C926.877 264.576 926.285 264.368 925.549 264.368ZM934.416 263C934.416 260.248 934.944 258.08 936 256.496C937.072 254.912 938.792 254.12 941.16 254.12C943.528 254.12 945.24 254.912 946.296 256.496C947.368 258.08 947.904 260.248 947.904 263C947.904 265.784 947.368 267.968 946.296 269.552C945.24 271.136 943.528 271.928 941.16 271.928C938.792 271.928 937.072 271.136 936 269.552C934.944 267.968 934.416 265.784 934.416 263ZM943.872 263C943.872 261.384 943.696 260.144 943.344 259.28C942.992 258.4 942.264 257.96 941.16 257.96C940.056 257.96 939.328 258.4 938.976 259.28C938.624 260.144 938.448 261.384 938.448 263C938.448 264.088 938.512 264.992 938.64 265.712C938.768 266.416 939.024 266.992 939.408 267.44C939.808 267.872 940.392 268.088 941.16 268.088C941.928 268.088 942.504 267.872 942.888 267.44C943.288 266.992 943.552 266.416 943.68 265.712C943.808 264.992 943.872 264.088 943.872 263ZM950.072 263C950.072 260.248 950.6 258.08 951.656 256.496C952.728 254.912 954.448 254.12 956.816 254.12C959.184 254.12 960.896 254.912 961.952 256.496C963.024 258.08 963.56 260.248 963.56 263C963.56 265.784 963.024 267.968 961.952 269.552C960.896 271.136 959.184 271.928 956.816 271.928C954.448 271.928 952.728 271.136 951.656 269.552C950.6 267.968 950.072 265.784 950.072 263ZM959.528 263C959.528 261.384 959.352 260.144 959 259.28C958.648 258.4 957.92 257.96 956.816 257.96C955.712 257.96 954.984 258.4 954.632 259.28C954.28 260.144 954.104 261.384 954.104 263C954.104 264.088 954.168 264.992 954.296 265.712C954.424 266.416 954.68 266.992 955.064 267.44C955.464 267.872 956.048 268.088 956.816 268.088C957.584 268.088 958.16 267.872 958.544 267.44C958.944 266.992 959.208 266.416 959.336 265.712C959.464 264.992 959.528 264.088 959.528 263Z" fill="#FFB800"/>
<path d="M332.688 53.9766H327.953V59H326.492V47.625H333.477V48.8594H327.953V52.75H332.688V53.9766ZM343.367 53.9688C343.362 54.375 343.326 54.7865 343.258 55.2031C343.195 55.6146 343.096 56.013 342.961 56.3984C342.826 56.7839 342.651 57.1432 342.438 57.4766C342.229 57.8099 341.979 58.1016 341.688 58.3516C341.396 58.6016 341.06 58.7995 340.68 58.9453C340.305 59.0859 339.883 59.1562 339.414 59.1562C338.945 59.1562 338.521 59.0859 338.141 58.9453C337.766 58.7995 337.432 58.6016 337.141 58.3516C336.849 58.1016 336.596 57.8099 336.383 57.4766C336.169 57.138 335.995 56.776 335.859 56.3906C335.719 56.0052 335.615 55.6068 335.547 55.1953C335.479 54.7839 335.443 54.375 335.438 53.9688V52.6719C335.443 52.2656 335.477 51.8568 335.539 51.4453C335.607 51.0286 335.711 50.6276 335.852 50.2422C335.987 49.8568 336.159 49.4974 336.367 49.1641C336.581 48.8255 336.833 48.5286 337.125 48.2734C337.417 48.0234 337.75 47.8281 338.125 47.6875C338.505 47.5417 338.93 47.4688 339.398 47.4688C339.867 47.4688 340.292 47.5417 340.672 47.6875C341.052 47.8281 341.388 48.0234 341.68 48.2734C341.971 48.5234 342.221 48.8177 342.43 49.1562C342.643 49.4896 342.82 49.849 342.961 50.2344C343.096 50.6198 343.195 51.0208 343.258 51.4375C343.326 51.8542 343.362 52.2656 343.367 52.6719V53.9688ZM341.938 52.6562C341.932 52.3854 341.914 52.1042 341.883 51.8125C341.852 51.5156 341.799 51.2214 341.727 50.9297C341.648 50.6432 341.547 50.3698 341.422 50.1094C341.297 49.8438 341.141 49.6094 340.953 49.4062C340.766 49.2083 340.544 49.0521 340.289 48.9375C340.034 48.8177 339.737 48.7578 339.398 48.7578C339.065 48.7578 338.771 48.8177 338.516 48.9375C338.26 49.0573 338.039 49.2161 337.852 49.4141C337.664 49.6172 337.508 49.8516 337.383 50.1172C337.258 50.3776 337.159 50.651 337.086 50.9375C337.008 51.2292 336.951 51.5234 336.914 51.8203C336.883 52.112 336.865 52.3906 336.859 52.6562V53.9688C336.865 54.2344 336.883 54.5156 336.914 54.8125C336.951 55.1094 337.008 55.401 337.086 55.6875C337.164 55.9792 337.266 56.2578 337.391 56.5234C337.516 56.7891 337.672 57.0208 337.859 57.2188C338.047 57.4219 338.268 57.5833 338.523 57.7031C338.779 57.8229 339.076 57.8828 339.414 57.8828C339.753 57.8828 340.049 57.8229 340.305 57.7031C340.565 57.5833 340.789 57.4219 340.977 57.2188C341.159 57.0208 341.31 56.7917 341.43 56.5312C341.555 56.2656 341.656 55.987 341.734 55.6953C341.807 55.4089 341.857 55.1172 341.883 54.8203C341.914 54.5234 341.932 54.2396 341.938 53.9688V52.6562ZM352.703 59H351.234L346.82 50.5L346.797 59H345.336V47.625H346.805L351.219 56.1094L351.242 47.625H352.703V59ZM362.859 48.8594H359.344V59H357.938V48.8594H354.422V47.625H362.859V48.8594ZM370.75 56.125C370.75 55.776 370.669 55.4818 370.508 55.2422C370.352 55.0026 370.148 54.7995 369.898 54.6328C369.648 54.4714 369.372 54.3359 369.07 54.2266C368.773 54.1172 368.487 54.0182 368.211 53.9297C367.81 53.7995 367.401 53.6432 366.984 53.4609C366.573 53.2734 366.198 53.0495 365.859 52.7891C365.516 52.5234 365.234 52.2109 365.016 51.8516C364.802 51.487 364.695 51.0599 364.695 50.5703C364.695 50.0807 364.802 49.6432 365.016 49.2578C365.234 48.8724 365.518 48.5469 365.867 48.2812C366.216 48.0156 366.612 47.8151 367.055 47.6797C367.497 47.5391 367.943 47.4688 368.391 47.4688C368.885 47.4688 369.362 47.5521 369.82 47.7188C370.279 47.8802 370.685 48.1094 371.039 48.4062C371.393 48.7031 371.677 49.0625 371.891 49.4844C372.104 49.9062 372.216 50.3776 372.227 50.8984H370.742C370.701 50.5703 370.62 50.2734 370.5 50.0078C370.38 49.737 370.221 49.5052 370.023 49.3125C369.826 49.1198 369.589 48.9714 369.312 48.8672C369.042 48.7578 368.734 48.7031 368.391 48.7031C368.115 48.7031 367.844 48.7422 367.578 48.8203C367.318 48.8984 367.086 49.0156 366.883 49.1719C366.674 49.3281 366.508 49.5208 366.383 49.75C366.263 49.9792 366.203 50.2448 366.203 50.5469C366.208 50.875 366.292 51.1536 366.453 51.3828C366.615 51.6068 366.82 51.7969 367.07 51.9531C367.315 52.1094 367.581 52.2396 367.867 52.3438C368.159 52.4479 368.432 52.5391 368.688 52.6172C369.109 52.7474 369.531 52.9062 369.953 53.0938C370.375 53.276 370.76 53.5104 371.109 53.7969C371.453 54.0625 371.729 54.388 371.938 54.7734C372.151 55.1589 372.258 55.6042 372.258 56.1094C372.258 56.6198 372.143 57.0651 371.914 57.4453C371.69 57.8255 371.398 58.1406 371.039 58.3906C370.68 58.6458 370.273 58.8385 369.82 58.9688C369.367 59.0938 368.914 59.1562 368.461 59.1562C367.919 59.1562 367.385 59.0651 366.859 58.8828C366.339 58.7005 365.885 58.4375 365.5 58.0938C365.156 57.7969 364.883 57.4505 364.68 57.0547C364.482 56.6536 364.375 56.2083 364.359 55.7188H365.836C365.883 56.0729 365.979 56.388 366.125 56.6641C366.271 56.9349 366.458 57.1641 366.688 57.3516C366.917 57.5443 367.18 57.6901 367.477 57.7891C367.779 57.8828 368.107 57.9297 368.461 57.9297C368.742 57.9297 369.018 57.8958 369.289 57.8281C369.565 57.7552 369.81 57.6432 370.023 57.4922C370.237 57.3464 370.411 57.1615 370.547 56.9375C370.682 56.7083 370.75 56.4375 370.75 56.125Z" fill="#F44D00"/>
<path d="M322.247 162.128H288.711L283.335 178H260.423L292.935 88.144H318.279L350.791 178H327.623L322.247 162.128ZM316.615 145.232L305.479 112.336L294.471 145.232H316.615ZM356.334 142.16C356.334 134.821 357.699 128.379 360.43 122.832C363.246 117.285 367.043 113.019 371.822 110.032C376.601 107.045 381.934 105.552 387.822 105.552C392.857 105.552 397.251 106.576 401.006 108.624C404.846 110.672 407.79 113.36 409.838 116.688V106.576H431.726V178H409.838V167.888C407.705 171.216 404.718 173.904 400.878 175.952C397.123 178 392.729 179.024 387.694 179.024C381.891 179.024 376.601 177.531 371.822 174.544C367.043 171.472 363.246 167.163 360.43 161.616C357.699 155.984 356.334 149.499 356.334 142.16ZM409.838 142.288C409.838 136.827 408.302 132.517 405.23 129.36C402.243 126.203 398.574 124.624 394.222 124.624C389.87 124.624 386.158 126.203 383.086 129.36C380.099 132.432 378.606 136.699 378.606 142.16C378.606 147.621 380.099 151.973 383.086 155.216C386.158 158.373 389.87 159.952 394.222 159.952C398.574 159.952 402.243 158.373 405.23 155.216C408.302 152.059 409.838 147.749 409.838 142.288Z" fill="#282828"/>
<path d="M311.343 200.576C311.343 201.552 311.119 202.448 310.671 203.264C310.223 204.064 309.535 204.712 308.607 205.208C307.679 205.704 306.527 205.952 305.151 205.952H302.607V212H298.503V195.152H305.151C306.495 195.152 307.631 195.384 308.559 195.848C309.487 196.312 310.183 196.952 310.647 197.768C311.111 198.584 311.343 199.52 311.343 200.576ZM304.839 202.688C305.623 202.688 306.207 202.504 306.591 202.136C306.975 201.768 307.167 201.248 307.167 200.576C307.167 199.904 306.975 199.384 306.591 199.016C306.207 198.648 305.623 198.464 304.839 198.464H302.607V202.688H304.839ZM321.447 212.168C319.863 212.168 318.407 211.8 317.079 211.064C315.767 210.328 314.719 209.304 313.935 207.992C313.167 206.664 312.783 205.176 312.783 203.528C312.783 201.88 313.167 200.4 313.935 199.088C314.719 197.776 315.767 196.752 317.079 196.016C318.407 195.28 319.863 194.912 321.447 194.912C323.031 194.912 324.479 195.28 325.791 196.016C327.119 196.752 328.159 197.776 328.911 199.088C329.679 200.4 330.063 201.88 330.063 203.528C330.063 205.176 329.679 206.664 328.911 207.992C328.143 209.304 327.103 210.328 325.791 211.064C324.479 211.8 323.031 212.168 321.447 212.168ZM321.447 208.424C322.791 208.424 323.863 207.976 324.663 207.08C325.479 206.184 325.887 205 325.887 203.528C325.887 202.04 325.479 200.856 324.663 199.976C323.863 199.08 322.791 198.632 321.447 198.632C320.087 198.632 318.999 199.072 318.183 199.952C317.383 200.832 316.983 202.024 316.983 203.528C316.983 205.016 317.383 206.208 318.183 207.104C318.999 207.984 320.087 208.424 321.447 208.424ZM345.186 200.576C345.186 201.552 344.962 202.448 344.514 203.264C344.066 204.064 343.378 204.712 342.45 205.208C341.522 205.704 340.37 205.952 338.994 205.952H336.45V212H332.346V195.152H338.994C340.338 195.152 341.474 195.384 342.402 195.848C343.33 196.312 344.026 196.952 344.49 197.768C344.954 198.584 345.186 199.52 345.186 200.576ZM338.682 202.688C339.466 202.688 340.05 202.504 340.434 202.136C340.818 201.768 341.01 201.248 341.01 200.576C341.01 199.904 340.818 199.384 340.434 199.016C340.05 198.648 339.466 198.464 338.682 198.464H336.45V202.688H338.682ZM360.163 200.576C360.163 201.552 359.939 202.448 359.491 203.264C359.043 204.064 358.355 204.712 357.427 205.208C356.499 205.704 355.347 205.952 353.971 205.952H351.427V212H347.323V195.152H353.971C355.315 195.152 356.451 195.384 357.379 195.848C358.307 196.312 359.003 196.952 359.467 197.768C359.931 198.584 360.163 199.52 360.163 200.576ZM353.659 202.688C354.443 202.688 355.027 202.504 355.411 202.136C355.795 201.768 355.987 201.248 355.987 200.576C355.987 199.904 355.795 199.384 355.411 199.016C355.027 198.648 354.443 198.464 353.659 198.464H351.427V202.688H353.659ZM366.404 195.152V212H362.3V195.152H366.404ZM384.45 212H380.346L373.482 201.608V212H369.378V195.152H373.482L380.346 205.592V195.152H384.45V212ZM393.521 212.168C392.289 212.168 391.185 211.968 390.209 211.568C389.233 211.168 388.449 210.576 387.857 209.792C387.281 209.008 386.977 208.064 386.945 206.96H391.313C391.377 207.584 391.593 208.064 391.961 208.4C392.329 208.72 392.809 208.88 393.401 208.88C394.009 208.88 394.489 208.744 394.841 208.472C395.193 208.184 395.369 207.792 395.369 207.296C395.369 206.88 395.225 206.536 394.937 206.264C394.665 205.992 394.321 205.768 393.905 205.592C393.505 205.416 392.929 205.216 392.177 204.992C391.089 204.656 390.201 204.32 389.513 203.984C388.825 203.648 388.233 203.152 387.737 202.496C387.241 201.84 386.993 200.984 386.993 199.928C386.993 198.36 387.561 197.136 388.697 196.256C389.833 195.36 391.313 194.912 393.137 194.912C394.993 194.912 396.489 195.36 397.625 196.256C398.761 197.136 399.369 198.368 399.449 199.952H395.009C394.977 199.408 394.777 198.984 394.409 198.68C394.041 198.36 393.569 198.2 392.993 198.2C392.497 198.2 392.097 198.336 391.793 198.608C391.489 198.864 391.337 199.24 391.337 199.736C391.337 200.28 391.593 200.704 392.105 201.008C392.617 201.312 393.417 201.64 394.505 201.992C395.593 202.36 396.473 202.712 397.145 203.048C397.833 203.384 398.425 203.872 398.921 204.512C399.417 205.152 399.665 205.976 399.665 206.984C399.665 207.944 399.417 208.816 398.921 209.6C398.441 210.384 397.737 211.008 396.809 211.472C395.881 211.936 394.785 212.168 393.521 212.168Z" fill="#282828"/>
<defs>
<filter id="filter0_d_668_2441" x="16" y="72" width="150" height="150" filterUnits="userSpaceOnUse" color-interpolation-filters="sRGB">
<feFlood flood-opacity="0" result="BackgroundImageFix"/>
<feColorMatrix in="SourceAlpha" type="matrix" values="0 0 0 0 0 0 0 0 0 0 0 0 0 0 0 0 0 0 127 0" result="hardAlpha"/>
<feOffset dx="-4" dy="4"/>
<feGaussianBlur stdDeviation="7.5"/>
<feComposite in2="hardAlpha" operator="out"/>
<feColorMatrix type="matrix" values="0 0 0 0 0 0 0 0 0 0 0 0 0 0 0 0 0 0 0.25 0"/>
<feBlend mode="normal" in2="BackgroundImageFix" result="effect1_dropShadow_668_2441"/>
<feBlend mode="normal" in="SourceGraphic" in2="effect1_dropShadow_668_2441" result="shape"/>
</filter>
<clipPath id="clip0_668_2441">
<rect width="75.606" height="80.597" fill="white" transform="translate(56.4927 102.702)"/>
</clipPath>
</defs>
</svg>
