<svg width="182" height="136" viewBox="0 0 182 136" fill="none" xmlns="http://www.w3.org/2000/svg">
<path d="M64.247 79.128H30.711L25.335 95H2.423L34.935 5.144H60.279L92.791 95H69.623L64.247 79.128ZM58.615 62.232L47.479 29.336L36.471 62.232H58.615ZM98.334 59.16C98.334 51.8213 99.6993 45.3787 102.43 39.832C105.246 34.2853 109.043 30.0187 113.822 27.032C118.601 24.0453 123.934 22.552 129.822 22.552C134.857 22.552 139.251 23.576 143.006 25.624C146.846 27.672 149.79 30.36 151.838 33.688V23.576H173.726V95H151.838V84.888C149.705 88.216 146.718 90.904 142.878 92.952C139.123 95 134.729 96.024 129.694 96.024C123.891 96.024 118.601 94.5307 113.822 91.544C109.043 88.472 105.246 84.1627 102.43 78.616C99.6993 72.984 98.334 66.4987 98.334 59.16ZM151.838 59.288C151.838 53.8267 150.302 49.5173 147.23 46.36C144.243 43.2027 140.574 41.624 136.222 41.624C131.87 41.624 128.158 43.2027 125.086 46.36C122.099 49.432 120.606 53.6987 120.606 59.16C120.606 64.6213 122.099 68.9733 125.086 72.216C128.158 75.3733 131.87 76.952 136.222 76.952C140.574 76.952 144.243 75.3733 147.23 72.216C150.302 69.0587 151.838 64.7493 151.838 59.288Z" fill="#282828"/>
<path d="M53.3426 117.576C53.3426 118.552 53.1186 119.448 52.6706 120.264C52.2226 121.064 51.5346 121.712 50.6066 122.208C49.6786 122.704 48.5266 122.952 47.1506 122.952H44.6066V129H40.5026V112.152H47.1506C48.4946 112.152 49.6306 112.384 50.5586 112.848C51.4866 113.312 52.1826 113.952 52.6466 114.768C53.1106 115.584 53.3426 116.52 53.3426 117.576ZM46.8386 119.688C47.6226 119.688 48.2066 119.504 48.5906 119.136C48.9746 118.768 49.1666 118.248 49.1666 117.576C49.1666 116.904 48.9746 116.384 48.5906 116.016C48.2066 115.648 47.6226 115.464 46.8386 115.464H44.6066V119.688H46.8386ZM63.4472 129.168C61.8632 129.168 60.4072 128.8 59.0792 128.064C57.7672 127.328 56.7192 126.304 55.9352 124.992C55.1672 123.664 54.7832 122.176 54.7832 120.528C54.7832 118.88 55.1672 117.4 55.9352 116.088C56.7192 114.776 57.7672 113.752 59.0792 113.016C60.4072 112.28 61.8632 111.912 63.4472 111.912C65.0312 111.912 66.4792 112.28 67.7912 113.016C69.1192 113.752 70.1592 114.776 70.9112 116.088C71.6792 117.4 72.0632 118.88 72.0632 120.528C72.0632 122.176 71.6792 123.664 70.9112 124.992C70.1432 126.304 69.1032 127.328 67.7912 128.064C66.4792 128.8 65.0312 129.168 63.4472 129.168ZM63.4472 125.424C64.7912 125.424 65.8632 124.976 66.6632 124.08C67.4792 123.184 67.8872 122 67.8872 120.528C67.8872 119.04 67.4792 117.856 66.6632 116.976C65.8632 116.08 64.7912 115.632 63.4472 115.632C62.0872 115.632 60.9992 116.072 60.1832 116.952C59.3832 117.832 58.9832 119.024 58.9832 120.528C58.9832 122.016 59.3832 123.208 60.1832 124.104C60.9992 124.984 62.0872 125.424 63.4472 125.424ZM87.1864 117.576C87.1864 118.552 86.9624 119.448 86.5144 120.264C86.0664 121.064 85.3784 121.712 84.4504 122.208C83.5224 122.704 82.3704 122.952 80.9944 122.952H78.4504V129H74.3464V112.152H80.9944C82.3384 112.152 83.4744 112.384 84.4024 112.848C85.3304 113.312 86.0264 113.952 86.4904 114.768C86.9544 115.584 87.1864 116.52 87.1864 117.576ZM80.6824 119.688C81.4664 119.688 82.0504 119.504 82.4344 119.136C82.8184 118.768 83.0104 118.248 83.0104 117.576C83.0104 116.904 82.8184 116.384 82.4344 116.016C82.0504 115.648 81.4664 115.464 80.6824 115.464H78.4504V119.688H80.6824ZM102.163 117.576C102.163 118.552 101.939 119.448 101.491 120.264C101.043 121.064 100.355 121.712 99.427 122.208C98.499 122.704 97.347 122.952 95.971 122.952H93.427V129H89.323V112.152H95.971C97.315 112.152 98.451 112.384 99.379 112.848C100.307 113.312 101.003 113.952 101.467 114.768C101.931 115.584 102.163 116.52 102.163 117.576ZM95.659 119.688C96.443 119.688 97.027 119.504 97.411 119.136C97.795 118.768 97.987 118.248 97.987 117.576C97.987 116.904 97.795 116.384 97.411 116.016C97.027 115.648 96.443 115.464 95.659 115.464H93.427V119.688H95.659ZM108.404 112.152V129H104.3V112.152H108.404ZM126.45 129H122.346L115.482 118.608V129H111.378V112.152H115.482L122.346 122.592V112.152H126.45V129ZM135.521 129.168C134.289 129.168 133.185 128.968 132.209 128.568C131.233 128.168 130.449 127.576 129.857 126.792C129.281 126.008 128.977 125.064 128.945 123.96H133.313C133.377 124.584 133.593 125.064 133.961 125.4C134.329 125.72 134.809 125.88 135.401 125.88C136.009 125.88 136.489 125.744 136.841 125.472C137.193 125.184 137.369 124.792 137.369 124.296C137.369 123.88 137.225 123.536 136.937 123.264C136.665 122.992 136.321 122.768 135.905 122.592C135.505 122.416 134.929 122.216 134.177 121.992C133.089 121.656 132.201 121.32 131.513 120.984C130.825 120.648 130.233 120.152 129.737 119.496C129.241 118.84 128.993 117.984 128.993 116.928C128.993 115.36 129.561 114.136 130.697 113.256C131.833 112.36 133.313 111.912 135.137 111.912C136.993 111.912 138.489 112.36 139.625 113.256C140.761 114.136 141.369 115.368 141.449 116.952H137.009C136.977 116.408 136.777 115.984 136.409 115.68C136.041 115.36 135.569 115.2 134.993 115.2C134.497 115.2 134.097 115.336 133.793 115.608C133.489 115.864 133.337 116.24 133.337 116.736C133.337 117.28 133.593 117.704 134.105 118.008C134.617 118.312 135.417 118.64 136.505 118.992C137.593 119.36 138.473 119.712 139.145 120.048C139.833 120.384 140.425 120.872 140.921 121.512C141.417 122.152 141.665 122.976 141.665 123.984C141.665 124.944 141.417 125.816 140.921 126.6C140.441 127.384 139.737 128.008 138.809 128.472C137.881 128.936 136.785 129.168 135.521 129.168Z" fill="#282828"/>
</svg>
