<svg width="150" height="150" viewBox="0 0 150 150" fill="none" xmlns="http://www.w3.org/2000/svg">
<g filter="url(#filter0_d_668_2397)">
<rect x="19" y="11" width="120" height="120" rx="25.6719" fill="#F7F9F5"/>
<path fill-rule="evenodd" clip-rule="evenodd" d="M56.9622 11H113.328C127.506 11 139 22.4937 139 36.6719V101.352C130.612 105.429 121.192 107.716 111.239 107.716C76.1234 107.716 47.6567 79.2498 47.6567 44.1344C47.6567 31.9944 51.0591 20.6491 56.9622 11Z" fill="#D8EEEC"/>
<g clip-path="url(#clip0_668_2397)">
<path d="M83.1615 62.1646C83.1615 62.1646 83.127 62.1646 83.1098 62.1646C80.2997 62.1646 77.9895 59.9665 77.9895 57.165V36.2787C77.9895 33.3738 75.7397 30.9688 72.8348 30.7619C70.9125 30.624 68.9299 30.7102 66.9042 31.055C56.1119 32.8824 47.7419 41.8472 46.6558 52.7429C45.1904 67.4486 56.6981 79.8356 71.0935 79.8356C71.1194 79.8356 71.1366 79.8356 71.1625 79.8356C74.6708 79.827 77.5585 82.5767 77.5585 86.0851V103.928C77.5585 108.178 81.1789 111.592 85.4027 111.195C86.3078 111.109 87.2215 110.98 88.1353 110.79C98.712 108.609 106.754 99.5668 107.634 88.8004C108.815 74.3015 97.4018 62.1646 83.1529 62.1646H83.1615Z" fill="black"/>
<path d="M52.569 76.9738C49.4572 76.3273 46.4229 76.2324 43.5352 76.5859C42.3198 76.7324 41.3371 77.6375 41.0785 78.8184C40.3372 82.2751 40.2682 85.9817 41.044 89.8003C43.1559 100.222 51.5087 108.523 62.0337 110.704C64.3611 111.187 66.6541 111.359 68.8694 111.273C71.464 111.169 73.5759 109.204 73.8949 106.661C74.2569 103.851 74.1707 100.903 73.5587 97.8773C71.4468 87.4557 63.094 79.1546 52.569 76.9738Z" fill="#169F91"/>
<path d="M92.8425 40.3473C90.9202 31.9601 94.3251 27.9345 99.704 36.8045C104.428 31.2705 107.453 35.0547 103.178 41.8731C113.505 35.0633 115.022 41.8731 110.531 46.2434C120.323 49.4328 115.78 53.9756 107.953 53.5187C116.539 62.2939 109.238 62.8542 101.092 57.0615C97.618 67.5865 93.0839 64.5609 93.8166 54.4841C88.5411 55.4841 86.2741 51.6999 90.2737 47.6226C77.9558 41.8645 80.9814 37.3217 92.8511 40.3473H92.8425Z" fill="#6B9E1C"/>
</g>
</g>
<defs>
<filter id="filter0_d_668_2397" x="0" y="0" width="150" height="150" filterUnits="userSpaceOnUse" color-interpolation-filters="sRGB">
<feFlood flood-opacity="0" result="BackgroundImageFix"/>
<feColorMatrix in="SourceAlpha" type="matrix" values="0 0 0 0 0 0 0 0 0 0 0 0 0 0 0 0 0 0 127 0" result="hardAlpha"/>
<feOffset dx="-4" dy="4"/>
<feGaussianBlur stdDeviation="7.5"/>
<feComposite in2="hardAlpha" operator="out"/>
<feColorMatrix type="matrix" values="0 0 0 0 0 0 0 0 0 0 0 0 0 0 0 0 0 0 0.25 0"/>
<feBlend mode="normal" in2="BackgroundImageFix" result="effect1_dropShadow_668_2397"/>
<feBlend mode="normal" in="SourceGraphic" in2="effect1_dropShadow_668_2397" result="shape"/>
</filter>
<clipPath id="clip0_668_2397">
<rect width="75.606" height="80.597" fill="white" transform="translate(40.4927 30.7017)"/>
</clipPath>
</defs>
</svg>
